<svg width="132" height="16" viewBox="0 0 132 16" fill="none" xmlns="http://www.w3.org/2000/svg">
<path d="M12.4968 12.6324C12.5055 13.0091 12.4483 13.3844 12.3277 13.7413C12.1285 14.3339 11.7031 14.8237 11.1442 15.1039C10.8498 15.2505 10.5394 15.3623 10.2192 15.4371C9.86486 15.5235 9.50389 15.58 9.1401 15.6061C8.75719 15.636 8.35936 15.6559 7.95159 15.6559H0V4.70069H7.80738C8.12067 4.70069 8.43396 4.7156 8.75222 4.74047C9.0577 4.76349 9.36057 4.81341 9.65728 4.88965C9.93534 4.95603 10.2042 5.05623 10.4579 5.18802C10.7029 5.3135 10.9222 5.48387 11.1044 5.69028C11.2955 5.91049 11.4423 6.16543 11.537 6.44118C11.647 6.77467 11.6991 7.12449 11.6912 7.47554C11.7248 8.08574 11.5377 8.68767 11.1641 9.17128C10.7247 9.63489 10.1372 9.9304 9.50312 10.0067C9.96734 10.0306 10.4267 10.1125 10.8707 10.2504C11.2134 10.3533 11.5304 10.5279 11.8006 10.7626C12.0395 10.978 12.2207 11.2499 12.3277 11.5533C12.4456 11.9006 12.5028 12.2656 12.4968 12.6324ZM8.80195 7.94796C8.80355 7.81423 8.78167 7.68126 8.7373 7.5551C8.68995 7.42547 8.60934 7.31057 8.50358 7.22192C8.37064 7.11447 8.21639 7.0365 8.05105 6.99317C7.81149 6.92716 7.56347 6.89699 7.31506 6.90366H2.95885V8.96242H7.32004C7.56782 8.96895 7.81536 8.94219 8.05602 8.88285C8.21948 8.84209 8.37327 8.76942 8.50855 8.66902C8.6145 8.58463 8.69533 8.47285 8.74227 8.34579C8.78188 8.21689 8.80199 8.0828 8.80195 7.94796ZM9.4882 12.2893C9.49689 12.081 9.45239 11.8739 9.35891 11.6875C9.26647 11.5312 9.12734 11.4077 8.96108 11.3345C8.73793 11.2417 8.50105 11.1863 8.25991 11.1704C7.97148 11.1455 7.62835 11.1306 7.23053 11.1306H2.95885V13.4529H7.23053C7.62835 13.4529 7.97148 13.438 8.25991 13.4131C8.50173 13.3982 8.73905 13.341 8.96108 13.244C9.12734 13.1708 9.26647 13.0474 9.35891 12.891C9.45527 12.7057 9.49994 12.4978 9.4882 12.2893ZM26.4257 15.1138C25.5497 15.4067 24.6494 15.6214 23.7354 15.7553C22.8262 15.8856 21.9089 15.9504 20.9904 15.9493C19.9136 15.9645 18.8397 15.834 17.7978 15.5614C16.9475 15.3434 16.1472 14.9635 15.4407 14.4425C14.8172 13.9706 14.3172 13.3546 13.9837 12.6473C13.6396 11.894 13.468 11.0734 13.4814 10.2454C13.4739 9.44783 13.6474 8.65894 13.9886 7.93801C14.3278 7.22444 14.8182 6.59321 15.4258 6.08811C16.0885 5.53979 16.8497 5.12291 17.6685 4.85982C18.6162 4.55454 19.607 4.40507 20.6025 4.41723C21.5281 4.40687 22.4495 4.54281 23.3326 4.82003C24.1175 5.06522 24.8424 5.47174 25.461 6.01352C26.0612 6.54926 26.5321 7.21403 26.8385 7.9579C27.1809 8.80403 27.3483 9.71074 27.3308 10.6234V11.3593H16.5298C16.624 11.7036 16.7845 12.0263 17.0022 12.3091C17.2441 12.616 17.5495 12.867 17.8973 13.0451C18.3363 13.2687 18.8053 13.4278 19.2897 13.5176C19.9408 13.6375 20.6019 13.6942 21.2639 13.6866C21.7975 13.6863 22.3307 13.6531 22.8602 13.5872C23.3506 13.5276 23.8371 13.4396 24.3172 13.3236C24.7317 13.2264 25.1402 13.1052 25.5406 12.9606C25.8453 12.8546 26.1399 12.7215 26.4208 12.5628V15.1138H26.4257ZM24.3869 9.19117C24.3541 8.8992 24.2717 8.61497 24.1432 8.35076C23.9935 8.04242 23.7739 7.77336 23.5017 7.56505C23.1571 7.30436 22.7678 7.10886 22.353 6.9882C21.7777 6.82345 21.1809 6.74634 20.5826 6.75945C19.9994 6.74794 19.4182 6.83193 18.862 7.00809C18.4268 7.14787 18.0158 7.35421 17.6437 7.61975C17.3434 7.8341 17.0855 8.10217 16.8828 8.41043C16.7225 8.6492 16.6031 8.91308 16.5298 9.19117H24.3869ZM39.5988 4.70069L42.3985 12.3091L45.427 4.70069H48.4953L44.0993 15.6559H40.8122L37.9478 8.28611L35.0934 15.6559H31.8064L27.4004 4.70069H30.4786L33.4424 12.15L36.3068 4.70069H39.5988ZM58.6896 15.6559V14.5817C58.2985 14.7973 57.8912 14.9819 57.4712 15.1337C57.0284 15.2949 56.5768 15.431 56.1186 15.5415C55.6413 15.6526 55.1582 15.7373 54.6715 15.7951C54.1729 15.8507 53.6715 15.8789 53.1697 15.8797C52.5952 15.882 52.022 15.8254 51.4591 15.7106C50.9447 15.6136 50.4504 15.4303 49.9971 15.1685C49.5817 14.9293 49.2302 14.5932 48.9726 14.1889C48.7027 13.7428 48.568 13.2281 48.5848 12.707C48.5616 12.0395 48.7766 11.3855 49.1914 10.862C49.6917 10.3043 50.3296 9.88761 51.0414 9.65364C52.0603 9.29503 53.1161 9.0515 54.1892 8.92761C55.4572 8.75853 56.9574 8.62592 58.6896 8.52978V8.30103C58.6864 8.11288 58.6368 7.92843 58.5454 7.76396C58.4212 7.55887 58.2397 7.39463 58.0232 7.29154C57.6955 7.1333 57.3474 7.02118 56.9889 6.95836C56.4338 6.86344 55.8711 6.82016 55.3081 6.82907C54.7765 6.82956 54.2453 6.85778 53.7167 6.9136C53.1946 6.96831 52.6874 7.0429 52.2 7.14236C51.7127 7.23684 51.2502 7.35122 50.8176 7.47554C50.38 7.60483 49.9871 7.73412 49.6291 7.87336V5.24273C50.5168 5.01993 51.4168 4.84891 52.3243 4.73052C52.8216 4.66588 53.3289 4.61117 53.8411 4.57139C54.3533 4.53161 54.8406 4.51172 55.3081 4.51172C56.1622 4.50501 57.0149 4.58162 57.8542 4.74047C58.5561 4.86528 59.2331 5.10379 59.8582 5.44661C60.3902 5.7371 60.8427 6.15376 61.176 6.65999C61.5024 7.18238 61.6668 7.78975 61.6484 8.40546V15.6559H58.6896ZM58.6896 10.6582C57.5508 10.7029 56.5844 10.7642 55.7904 10.8422C54.9948 10.9217 54.3334 11.0162 53.8112 11.1206C53.3885 11.1955 52.9739 11.3104 52.573 11.4638C52.332 11.5541 52.1057 11.6798 51.9017 11.8367C51.7743 11.9341 51.679 12.0675 51.6281 12.2196C51.5959 12.3346 51.5792 12.4533 51.5784 12.5727C51.579 12.7042 51.6151 12.833 51.6828 12.9457C51.7714 13.0826 51.8974 13.1914 52.0459 13.259C52.2643 13.3645 52.4973 13.4366 52.7371 13.4728C53.0953 13.5322 53.4581 13.5589 53.8212 13.5524C54.2958 13.5538 54.7697 13.5172 55.2384 13.443C55.6844 13.3712 56.1248 13.2682 56.5562 13.1346C56.9571 13.0107 57.3478 12.8561 57.7249 12.6722C58.0648 12.5085 58.3908 12.3172 58.6995 12.1003V10.6582H58.6896ZM74.4535 15.6559C74.3817 14.6127 73.9117 13.6371 73.1407 12.9308C72.7835 12.6042 72.3795 12.3326 71.9422 12.1252C71.5035 11.9131 71.0456 11.7432 70.5747 11.6179C70.1163 11.4946 69.6492 11.4065 69.1773 11.3544C68.7463 11.3065 68.3131 11.2816 67.8794 11.2798H67.0042V15.6559H64.0454V4.70069H67.0042V8.92761H67.6109C68.0403 8.92687 68.469 8.89529 68.8939 8.83312C69.3441 8.76871 69.7882 8.66725 70.2216 8.52978C70.6578 8.39068 71.0805 8.21259 71.4847 7.99769C71.8816 7.78465 72.2466 7.5168 72.5688 7.20203C72.8916 6.8848 73.1604 6.51693 73.3645 6.11298C73.5847 5.67316 73.7196 5.19565 73.7623 4.70566H76.7759C76.7318 5.24286 76.6147 5.77153 76.4278 6.27708C76.2608 6.72246 76.0386 7.14514 75.7664 7.53521C75.5127 7.89237 75.2172 8.21791 74.8862 8.50492C74.5755 8.77129 74.2428 9.01085 73.8916 9.22101C73.5672 9.41206 73.228 9.57669 72.8771 9.71332C72.5691 9.83342 72.2535 9.93309 71.9323 10.0117C72.3246 10.0749 72.7118 10.1663 73.091 10.2852C73.5027 10.4132 73.9022 10.578 74.2845 10.7775C74.6869 10.9881 75.0654 11.2415 75.4133 11.5334C76.1787 12.172 76.7605 13.0027 77.0991 13.9402C77.2982 14.4947 77.422 15.0734 77.4671 15.6608H74.4535V15.6559ZM115.987 7.03793C115.639 7.03793 115.33 7.05284 115.057 7.07771C114.815 7.09448 114.578 7.15868 114.361 7.26668C114.171 7.3673 114.017 7.52577 113.923 7.71921C113.812 7.97628 113.761 8.25512 113.774 8.53475V8.94253H122.034V11.2798H113.774V15.6559H110.815V8.28611C110.807 7.76936 110.893 7.25547 111.069 6.76939C111.238 6.32205 111.529 5.93103 111.909 5.64055C112.377 5.30331 112.908 5.06474 113.471 4.93938C114.265 4.76054 115.078 4.67872 115.892 4.69571H122.422V7.03295H115.987V7.03793ZM93.2957 10.1012C93.3124 10.9808 93.1306 11.8528 92.7636 12.6523C92.4146 13.3822 91.8942 14.0169 91.2469 14.5022C90.5288 15.0253 89.7167 15.4052 88.8549 15.6211C87.8219 15.8856 86.7585 16.0127 85.6922 15.999C84.6243 16.012 83.5593 15.885 82.5245 15.6211C81.6573 15.4031 80.8391 15.0235 80.1126 14.5022C79.4587 14.0199 78.9328 13.3847 78.581 12.6523C78.2095 11.8541 78.0258 10.9814 78.0439 10.1012C78.0263 9.22104 78.21 8.34847 78.581 7.55013C78.9343 6.82001 79.46 6.18682 80.1126 5.7052C80.8382 5.18134 81.6567 4.79997 82.5245 4.58134C84.6045 4.07741 86.7748 4.07741 88.8549 4.58134C89.7174 4.7978 90.5297 5.17947 91.2469 5.7052C91.8941 6.1886 92.4145 6.82164 92.7636 7.55013C93.1334 8.34871 93.3154 9.22137 93.2957 10.1012ZM109.497 10.1012C109.514 10.9808 109.332 11.8528 108.965 12.6523C108.616 13.3822 108.096 14.0169 107.448 14.5022C106.73 15.0253 105.918 15.4052 105.056 15.6211C104.023 15.8856 102.96 16.0127 101.894 15.999C100.826 16.012 99.7609 15.885 98.726 15.6211C97.8589 15.4031 97.0406 15.0235 96.3142 14.5022C95.6602 14.0199 95.1344 13.3847 94.7826 12.6523C94.411 11.8541 94.2273 10.9814 94.2455 10.1012C94.2279 9.22104 94.4115 8.34847 94.7826 7.55013C95.1359 6.82001 95.6615 6.18682 96.3142 5.7052C97.0398 5.18134 97.8582 4.79997 98.726 4.58134C100.806 4.07741 102.976 4.07741 105.056 4.58134C105.919 4.7978 106.731 5.17947 107.448 5.7052C108.096 6.1886 108.616 6.82164 108.965 7.55013C109.333 8.34947 109.515 9.2216 109.497 10.1012ZM108.562 4.68079L107.334 3.53207C106.792 3.05223 106.155 2.6925 105.464 2.47652C104.773 2.26054 104.045 2.19319 103.326 2.27891L101.108 2.54247L100.844 0.314631L103.062 0.0510702C104.098 -0.0712591 105.148 0.0267719 106.143 0.33873C107.138 0.650689 108.055 1.16952 108.836 1.86119L108.856 1.88108L110.094 3.03975L108.562 4.68079Z" fill="black"/>
<path d="M128.227 6.42568H128.183L128.033 6.41076H128.013C128.001 6.40427 127.987 6.4025 127.974 6.40579H127.949C127.91 6.40158 127.872 6.39494 127.834 6.3859C127.821 6.38341 127.808 6.38341 127.795 6.3859C127.785 6.37098 127.775 6.37595 127.76 6.37595H127.745C127.61 6.34773 127.477 6.3095 127.347 6.26158C127.287 6.24169 127.228 6.21682 127.168 6.19693C127.166 6.1939 127.163 6.19143 127.159 6.18971C127.156 6.18799 127.152 6.18706 127.148 6.18698C127.129 6.1766 127.109 6.16827 127.089 6.16212H127.084C127.084 6.15715 127.084 6.15715 127.079 6.15715H127.074C127.074 6.15583 127.073 6.15456 127.072 6.15363C127.071 6.1527 127.07 6.15217 127.069 6.15217H127.064C127.064 6.15086 127.063 6.14959 127.062 6.14866C127.061 6.14773 127.06 6.1472 127.059 6.1472H127.049C127.049 6.14223 127.044 6.13726 127.039 6.13228C126.974 6.09747 126.909 6.06266 126.845 6.03283C126.78 5.99304 126.721 5.95326 126.656 5.91348L126.601 5.87369C126.586 5.86375 126.571 5.84883 126.556 5.83889C126.477 5.77424 126.402 5.71456 126.328 5.64494C126.2 5.52532 126.082 5.39561 125.975 5.25706C125.965 5.24214 125.95 5.22722 125.94 5.21231L125.9 5.1576C125.86 5.09296 125.82 5.03328 125.781 4.96864C125.766 4.9388 125.751 4.91393 125.736 4.8841C125.736 4.87913 125.731 4.87913 125.731 4.87415C125.696 4.79956 125.656 4.72497 125.622 4.6454C125.617 4.62551 125.607 4.61059 125.602 4.5907L125.597 4.58573C125.549 4.46898 125.51 4.3494 125.477 4.22768C125.462 4.16303 125.447 4.09839 125.433 4.03871C125.433 4.02877 125.433 4.01385 125.418 4.00888C125.42 3.99573 125.42 3.98224 125.418 3.96909C125.413 3.93059 125.407 3.89239 125.398 3.85472V3.8398C125.398 3.83483 125.398 3.83483 125.393 3.83483C125.395 3.81501 125.395 3.79497 125.393 3.77515C125.387 3.73061 125.384 3.68579 125.383 3.64089V3.57624C125.388 3.47678 125.383 3.37235 125.388 3.27289C125.402 3.05026 125.443 2.83004 125.507 2.61648C125.567 2.41198 125.651 2.21508 125.756 2.02968C125.761 2.01974 125.761 2.01476 125.766 2.00482C125.775 1.99509 125.782 1.98311 125.786 1.97001L125.92 1.76115L125.925 1.75617C125.93 1.7512 125.935 1.74623 125.935 1.74126C125.955 1.71639 125.97 1.69153 125.99 1.66666C125.994 1.66169 125.999 1.65174 126.004 1.64677C126.059 1.58213 126.114 1.51748 126.173 1.45283C126.281 1.33914 126.395 1.23281 126.517 1.13457C126.522 1.1296 126.532 1.12462 126.537 1.11965C126.561 1.09976 126.586 1.08484 126.611 1.06495C126.616 1.05998 126.621 1.055 126.626 1.055L126.631 1.05003L126.84 0.915763C126.853 0.912192 126.865 0.905347 126.875 0.895871C126.9 0.880953 126.929 0.871007 126.954 0.856089C127.044 0.80636 127.143 0.766577 127.238 0.721822L127.447 0.647229C127.601 0.602473 127.755 0.567663 127.914 0.537826H127.929C127.984 0.532853 128.038 0.522908 128.088 0.517935H128.108C128.222 0.507989 128.337 0.512962 128.451 0.512962H128.516C128.56 0.518747 128.605 0.522068 128.65 0.522908C128.659 0.522134 128.667 0.523861 128.675 0.527881C128.685 0.537826 128.7 0.532853 128.71 0.532853H128.725C128.794 0.547772 128.869 0.557718 128.938 0.572636C129.217 0.631339 129.487 0.728403 129.739 0.861062C129.741 0.862941 129.743 0.864362 129.746 0.865222C129.749 0.866082 129.751 0.866359 129.754 0.866034C129.759 0.866034 129.759 0.871007 129.764 0.871007C129.791 0.889414 129.819 0.906026 129.848 0.920736L130.022 1.03511L130.077 1.07489C130.092 1.08484 130.107 1.09976 130.122 1.1097C130.202 1.17435 130.276 1.23403 130.351 1.30365C130.479 1.42327 130.597 1.55298 130.704 1.69153C130.714 1.70645 130.729 1.72136 130.739 1.73628L130.778 1.79098C130.813 1.85066 130.853 1.90536 130.888 1.96503C130.908 1.99711 130.926 2.03032 130.942 2.06449C130.962 2.10427 130.982 2.13908 131.002 2.17887C131.012 2.20373 131.027 2.2286 131.037 2.25346C131.092 2.38023 131.14 2.50969 131.181 2.64134C131.211 2.74577 131.236 2.8502 131.256 2.9596C131.255 2.96661 131.257 2.97366 131.261 2.9795C131.265 3.018 131.272 3.0562 131.281 3.09387V3.11376C131.28 3.12885 131.281 3.14397 131.286 3.15852V3.17344C131.291 3.22317 131.291 3.27289 131.301 3.32262V3.37732C131.301 3.4917 131.301 3.61105 131.296 3.72542V3.74034C131.286 3.80996 131.281 3.87958 131.271 3.9492V3.96412C131.251 4.06358 131.231 4.16303 131.206 4.26249C131.196 4.30645 131.182 4.34965 131.166 4.39179C131.141 4.45643 131.121 4.52605 131.097 4.5907C131.042 4.71502 130.987 4.83437 130.923 4.95372C130.923 4.95869 130.918 4.95869 130.918 4.96366C130.918 4.96864 130.913 4.96864 130.913 4.97361C130.868 5.0482 130.818 5.12279 130.773 5.19241L130.768 5.19739C130.763 5.20236 130.758 5.20733 130.758 5.21231C130.739 5.23717 130.724 5.26203 130.704 5.2869C130.699 5.29187 130.694 5.30182 130.689 5.30679C130.634 5.37144 130.579 5.43608 130.52 5.50073C130.413 5.61443 130.298 5.72076 130.177 5.81899C130.172 5.82397 130.162 5.82894 130.157 5.83391C130.132 5.8538 130.102 5.87369 130.077 5.89359C130.072 5.89359 130.072 5.89856 130.067 5.89856C130.062 5.89856 130.062 5.90353 130.057 5.90353C129.983 5.94829 129.908 5.99802 129.838 6.04277C129.834 6.04277 129.834 6.04774 129.829 6.04774C129.824 6.04774 129.824 6.05272 129.819 6.05272C129.794 6.06764 129.769 6.07758 129.744 6.0925C129.65 6.14223 129.555 6.18201 129.461 6.22677L129.252 6.30136C129.152 6.32622 129.048 6.36103 128.948 6.37595L128.784 6.40579H128.769C128.715 6.41076 128.66 6.42071 128.61 6.42568H128.227ZM127.044 1.4777C127.034 1.4777 127.029 1.48267 127.024 1.49261C126.995 1.50794 126.969 1.52628 126.944 1.54732C126.939 1.55229 126.934 1.55229 126.929 1.55726C126.853 1.61021 126.781 1.67014 126.716 1.73628C126.609 1.83617 126.512 1.94608 126.427 2.06449C126.422 2.06946 126.422 2.07444 126.417 2.07941C126.396 2.1039 126.378 2.13057 126.362 2.15898C126.356 2.16464 126.351 2.17138 126.348 2.17887C126.343 2.18384 126.338 2.19379 126.333 2.19876C126.333 2.20373 126.328 2.20373 126.328 2.2087C126.298 2.25339 126.272 2.29989 126.248 2.34794C126.198 2.43092 126.158 2.51936 126.129 2.61151C126.106 2.65953 126.088 2.70945 126.074 2.76069C126.025 2.90406 125.994 3.05258 125.98 3.20327V3.21819C125.97 3.28236 125.965 3.3472 125.965 3.41213V3.46684C125.961 3.52323 125.963 3.5798 125.97 3.63591V3.6558C125.978 3.81461 126.006 3.97173 126.054 4.12325C126.053 4.13185 126.055 4.14048 126.059 4.14812C126.079 4.22492 126.106 4.2998 126.139 4.37189C126.15 4.41049 126.167 4.4473 126.188 4.4813C126.238 4.59101 126.298 4.69589 126.367 4.79459C126.372 4.79956 126.377 4.8095 126.382 4.81448L126.387 4.81945C126.392 4.8294 126.392 4.83437 126.402 4.83934C126.408 4.85554 126.418 4.86952 126.432 4.87912C126.476 4.94191 126.524 5.00171 126.576 5.05815C126.676 5.17061 126.788 5.27228 126.909 5.36149C126.922 5.37261 126.935 5.3826 126.949 5.39133C126.965 5.40732 126.984 5.42074 127.004 5.43111C127.099 5.50153 127.203 5.55998 127.312 5.60516C127.347 5.62471 127.384 5.64134 127.422 5.65489C127.492 5.68873 127.565 5.71539 127.64 5.73446C127.648 5.73897 127.657 5.74073 127.665 5.73943C127.777 5.77477 127.892 5.79974 128.008 5.81402H128.023C128.061 5.82175 128.099 5.82674 128.138 5.82894H128.158C128.214 5.83564 128.27 5.8373 128.327 5.83391H128.386C128.45 5.83637 128.513 5.83136 128.575 5.81899H128.59C128.641 5.81727 128.691 5.8106 128.739 5.7991C128.846 5.78258 128.951 5.75593 129.053 5.71954C129.098 5.70988 129.141 5.69486 129.182 5.67478C129.272 5.64313 129.358 5.60317 129.441 5.55543C129.495 5.53046 129.546 5.50049 129.595 5.46592C129.605 5.45598 129.62 5.451 129.63 5.44106C129.658 5.42573 129.685 5.40739 129.709 5.38636C129.712 5.38623 129.714 5.38515 129.716 5.38331C129.718 5.38147 129.719 5.37901 129.719 5.37641C129.8 5.31916 129.876 5.256 129.948 5.18744C130.052 5.09217 130.146 4.9854 130.226 4.86918C130.231 4.86421 130.236 4.86421 130.236 4.85426C130.257 4.82977 130.276 4.8031 130.291 4.77469C130.291 4.76972 130.296 4.76972 130.296 4.76475C130.337 4.70865 130.372 4.64868 130.4 4.58573C130.45 4.50276 130.49 4.41432 130.52 4.32217C130.54 4.28276 130.555 4.24099 130.565 4.19784C130.615 4.04615 130.648 3.88939 130.664 3.7304V3.71548C130.675 3.66653 130.678 3.61624 130.674 3.56629V3.53148C130.675 3.53148 130.677 3.53096 130.677 3.53003C130.678 3.52909 130.679 3.52783 130.679 3.52651V3.46684C130.682 3.41044 130.681 3.35387 130.674 3.29776V3.27787C130.675 3.22414 130.668 3.17055 130.654 3.11874V3.10382C130.64 3.00448 130.619 2.90639 130.589 2.81042C130.59 2.79422 130.584 2.77839 130.574 2.76566C130.557 2.6968 130.532 2.63009 130.5 2.56675C130.488 2.52816 130.472 2.49134 130.45 2.45735C130.444 2.43823 130.436 2.41988 130.425 2.40265C130.385 2.31274 130.335 2.22766 130.276 2.14903C130.267 2.12783 130.254 2.10906 130.236 2.09433C130.226 2.07416 130.213 2.05571 130.197 2.03963C130.192 2.03465 130.192 2.02968 130.187 2.02968C130.149 1.97497 130.108 1.92341 130.062 1.87552C129.969 1.77093 129.866 1.67597 129.754 1.59207C129.749 1.5871 129.744 1.5871 129.744 1.58212L129.739 1.57715C129.725 1.56403 129.71 1.55236 129.694 1.54234C129.689 1.53737 129.679 1.5324 129.674 1.52742L129.669 1.52245C129.664 1.51748 129.654 1.51251 129.65 1.50753C129.571 1.45023 129.488 1.40029 129.401 1.35835C129.347 1.32685 129.29 1.30022 129.232 1.27878C129.205 1.26421 129.177 1.25254 129.147 1.24397C128.998 1.1868 128.843 1.14676 128.685 1.12462H128.67C128.659 1.12018 128.647 1.11847 128.635 1.11965H128.62C128.582 1.11192 128.544 1.10693 128.506 1.10473H128.486C128.43 1.09803 128.373 1.09637 128.317 1.09976H128.252C128.192 1.0973 128.132 1.10231 128.073 1.11468H128.058C128.008 1.1164 127.958 1.12307 127.909 1.13457C127.809 1.1518 127.711 1.17673 127.616 1.20916C127.563 1.22215 127.511 1.24048 127.461 1.26386C127.371 1.29646 127.282 1.33637 127.198 1.38321C127.151 1.40566 127.106 1.43228 127.064 1.46278C127.059 1.46278 127.059 1.46775 127.054 1.46775C127.059 1.46775 127.054 1.47272 127.044 1.4777Z" fill="#030303"/>
<path d="M129.831 4.94504H129.03C128.986 4.95498 128.966 4.93012 128.951 4.89033C128.931 4.84558 128.906 4.80082 128.886 4.76104C128.871 4.72623 128.851 4.69639 128.836 4.66158C128.822 4.63175 128.807 4.59694 128.792 4.5671C128.732 4.43283 128.667 4.30354 128.598 4.17424C128.559 4.0869 128.509 4.00499 128.449 3.93057C128.407 3.88027 128.354 3.83989 128.295 3.81236C128.236 3.78484 128.171 3.77086 128.105 3.77144C128.021 3.7615 127.931 3.77144 127.847 3.76647C127.842 3.76647 127.832 3.76647 127.837 3.77642V4.85552C127.834 4.86867 127.834 4.88216 127.837 4.89531C127.842 4.93012 127.832 4.93509 127.797 4.93509H127.041C127.039 4.90198 127.039 4.86874 127.041 4.83563V2.43375C127.041 2.3144 127.036 2.20002 127.041 2.08067V1.86187C127.041 1.837 127.051 1.83203 127.076 1.83203H128.409C128.459 1.837 128.508 1.837 128.558 1.84198H128.583C128.598 1.85192 128.608 1.84695 128.623 1.84695H128.638L128.861 1.89171C128.864 1.89138 128.867 1.89166 128.869 1.89252C128.872 1.89338 128.874 1.8948 128.876 1.89668C128.977 1.9253 129.072 1.96889 129.16 2.02597L129.165 2.03095C129.19 2.05581 129.219 2.0757 129.244 2.10057L129.279 2.13538C129.335 2.20147 129.379 2.27731 129.408 2.35915C129.419 2.38999 129.427 2.42157 129.433 2.45364C129.433 2.47923 129.438 2.50455 129.448 2.52823V2.54315C129.461 2.64222 129.461 2.74245 129.448 2.84152C129.433 2.9866 129.374 3.12362 129.279 3.23438C129.204 3.31441 129.117 3.38162 129.02 3.43329C129.012 3.43713 129.003 3.44215 128.996 3.44821C128.971 3.45815 128.941 3.4681 128.916 3.47804C128.901 3.48302 128.886 3.48799 128.866 3.49296C128.897 3.5014 128.927 3.51136 128.956 3.5228C129.029 3.55876 129.096 3.60572 129.155 3.66204C129.17 3.67696 129.185 3.69685 129.199 3.71177C129.27 3.79655 129.331 3.88818 129.383 3.98528C129.413 4.03998 129.438 4.09965 129.468 4.15435V4.15933C129.513 4.25878 129.563 4.35824 129.612 4.45272C129.622 4.48065 129.636 4.50734 129.652 4.53229L129.846 4.92017C129.831 4.94006 129.831 4.94006 129.831 4.94504ZM128.135 2.4238H128.036C128.019 2.4205 128.002 2.42223 127.986 2.42877V2.4238H127.857C127.842 2.4238 127.837 2.42877 127.837 2.44369V3.19459C127.837 3.20951 127.842 3.21946 127.857 3.21946C128.001 3.21448 128.145 3.22443 128.289 3.21448C128.364 3.21366 128.436 3.1912 128.498 3.14984C128.508 3.14984 128.513 3.14486 128.518 3.13492C128.566 3.10416 128.6 3.056 128.613 3.00065C128.635 2.94893 128.645 2.89281 128.643 2.83655C128.647 2.76149 128.633 2.68651 128.603 2.61774C128.601 2.60245 128.594 2.58825 128.583 2.57796C128.57 2.55097 128.549 2.52847 128.523 2.51331C128.518 2.50834 128.513 2.49839 128.503 2.49839C128.416 2.44638 128.316 2.42209 128.215 2.42877C128.189 2.42479 128.162 2.42313 128.135 2.4238Z" fill="#030303"/>
</svg>
