<svg width="121" height="24" viewBox="0 0 121 24" fill="none" xmlns="http://www.w3.org/2000/svg">
<path d="M68.1602 18.2227H68.6917V21.766H70.6848V22.2533H68.1602V18.2227Z" fill="#151011"/>
<path d="M73.5528 18.2227H74.1349L75.5903 22.209H75.0081L74.5715 20.9941H73.015L72.5784 22.209H72.0469L73.5528 18.2227ZM74.426 20.6018L73.8439 18.8554L73.2111 20.6018H74.426Z" fill="#151011"/>
<path d="M77.1953 18.2246H78.9417C79.3277 18.174 79.72 18.3196 79.9604 18.6612C80.0553 18.8068 80.1566 19.0472 80.1566 19.2434C80.1566 19.4838 80.106 19.68 79.9604 19.8761C79.8655 19.971 79.7643 20.0723 79.6187 20.1166C79.7643 20.1672 79.9604 20.2621 80.0553 20.357C80.2515 20.5532 80.3464 20.7936 80.3464 21.0847C80.3464 21.3251 80.2515 21.5719 80.106 21.7617C79.8149 22.1034 79.3783 22.2932 78.9417 22.2489H77.2396V18.2183H77.1953V18.2246ZM78.7519 19.9204C78.948 19.9204 79.1378 19.9204 79.2834 19.8255C79.4795 19.7306 79.6251 19.5344 79.5744 19.294C79.5744 19.0535 79.4795 18.8574 79.2328 18.7625C79.0366 18.7119 78.8911 18.6676 78.7013 18.6676H77.7268V19.8824L78.7519 19.9204ZM78.8974 21.768C79.1885 21.8186 79.4289 21.6731 79.6251 21.477C79.72 21.3314 79.7706 21.1859 79.7706 21.0404C79.7706 20.7999 79.6251 20.5532 79.3846 20.4582C79.1885 20.4076 78.9986 20.3633 78.8531 20.3633H77.7331V21.7744H78.8974V21.768Z" fill="#151011"/>
<path d="M82.3962 20.9449C82.3962 21.141 82.4468 21.3309 82.5417 21.4764C82.7379 21.7675 83.1238 21.913 83.4655 21.8624C83.6617 21.8624 83.8072 21.8118 83.997 21.7675C84.2881 21.7168 84.4842 21.4764 84.4842 21.1853C84.4842 20.9892 84.4336 20.7994 84.2881 20.6981C84.0919 20.6032 83.9021 20.502 83.6553 20.4577L83.1238 20.3628C82.8834 20.3121 82.6366 20.2172 82.3962 20.1223C82.1557 19.9768 82.0102 19.6857 82.0102 19.3947C82.0102 19.053 82.1051 18.7619 82.3519 18.5215C82.6429 18.281 82.9846 18.1355 83.3706 18.1798C83.7566 18.1798 84.0983 18.2747 84.3893 18.4708C84.6804 18.7113 84.8259 19.053 84.8259 19.4453H84.3387C84.3387 19.2491 84.2881 19.1036 84.1426 18.9581C83.9464 18.7176 83.6553 18.6164 83.3643 18.6164C83.1238 18.6164 82.8771 18.667 82.6872 18.8125C82.5417 18.9581 82.4911 19.1036 82.4911 19.2997C82.4911 19.4959 82.586 19.6414 82.7315 19.7363C82.972 19.8313 83.2187 19.9325 83.4086 19.9325L83.9401 20.078C84.1362 20.1286 84.3767 20.2236 84.5222 20.3185C84.7627 20.5146 84.9082 20.8057 84.9082 21.1474C84.9588 21.5333 84.7627 21.9257 84.421 22.1218C84.0793 22.318 83.6933 22.4129 83.301 22.4129C82.8644 22.4129 82.4721 22.318 82.181 22.0269C81.89 21.7864 81.7444 21.3941 81.7951 21.0082L82.3962 20.9449Z" fill="#151011"/>
<path d="M12.8792 14.1409L9.28516 10.2052L12.8792 6.26953L13.5562 6.90228L10.5443 10.2052L13.5562 13.5082L12.8792 14.1409Z" fill="#7FC21E"/>
<path d="M15.6419 14.1409L14.9648 13.5082L18.0273 10.2052L14.9648 6.90228L15.6419 6.26953L19.2865 10.2052L15.6419 14.1409Z" fill="#7FC21E"/>
<path d="M0.00104377 10.2577C-0.0495761 7.97347 1.74743 6.08155 3.98736 6.03093C4.03798 6.03093 4.08227 6.03093 4.13289 6.03093C5.34776 5.98031 6.46773 6.46753 7.2903 7.34072L6.65755 8.01776C5.98051 7.2901 5.0567 6.8978 4.08227 6.8978C2.33588 6.8978 0.924856 8.35312 0.924856 10.1501C0.924856 10.2007 0.924856 10.2007 0.924856 10.245C0.829944 11.9914 2.19035 13.4974 3.98736 13.5986C4.03798 13.5986 4.03798 13.5986 4.08227 13.5986C5.10099 13.5986 6.0248 13.162 6.70817 12.4343L7.2903 13.0671C6.4614 13.9909 5.29714 14.5224 4.03798 14.4781C1.80438 14.4781 0.00737125 12.6305 0.00737125 10.3969C0.00104377 10.302 0.00104377 10.2577 0.00104377 10.2577Z" fill="#151011"/>
<path d="M22.2031 6.17578H25.0189C27.5941 6.17578 29.3405 7.92217 29.3405 10.2064C29.3405 12.4906 27.5941 14.2876 25.0189 14.2876H22.2031V6.17578ZM23.0763 6.99835V13.4081H24.9682C27.0057 13.4081 28.3218 11.9971 28.3218 10.2001C28.3218 8.40305 27.012 6.99203 24.9682 6.99203H23.0763V6.99835Z" fill="#151011"/>
<path d="M32.457 6.17578H38.3353V6.99835H33.3302V9.76979H37.7531V10.5924H33.3302V13.4587H38.3859V14.2876H32.457V6.17578Z" fill="#151011"/>
<path d="M46.0078 6.17444H49.4563C50.2346 6.12382 51.0128 6.37059 51.595 6.9021C51.9367 7.24378 52.1265 7.731 52.1265 8.21189C52.1265 9.04079 51.6393 9.81274 50.8167 10.1038C51.7911 10.3949 52.5631 10.9327 52.5631 12.0463C52.5631 13.4574 51.3988 14.2799 49.6018 14.2799H46.0078V6.17444ZM51.2027 8.3068C51.2027 7.4779 50.5699 6.99701 49.4057 6.99701H46.9253V9.81274H49.355C50.475 9.76845 51.2027 9.28123 51.2027 8.3068ZM49.5069 10.591H46.9316V13.4574H49.6524C50.8673 13.4574 51.6456 12.9259 51.6456 12.002C51.6456 11.0782 50.9116 10.591 49.5069 10.591Z" fill="#151011"/>
<path d="M55.5755 6.17556H59.0746C59.9035 6.12494 60.7767 6.41601 61.4095 7.00446C61.8461 7.44106 62.0422 8.02319 62.0422 8.60532C62.0422 9.96572 61.1184 10.744 59.8086 10.9844L62.289 14.2874H61.169L58.7899 11.13H56.4551V14.2874H55.5312L55.5755 6.17556ZM58.9797 10.3011C60.1946 10.3011 61.0678 9.66833 61.0678 8.64961C61.0678 7.63088 60.2895 7.04876 58.9797 7.04876H56.4551V10.3517L58.9797 10.3011Z" fill="#151011"/>
<path d="M65.1483 6.17578H71.0265V6.99835H66.0721V9.76979H70.495V10.5924H66.0721V13.4587H71.0771V14.2876H65.0977V6.17578H65.1483Z" fill="#151011"/>
<path d="M73.457 6.17562H74.4758L76.8106 12.927L79.0442 6.125H79.8225L82.0561 12.927L84.3846 6.17562H85.359L82.4421 14.3381H81.6195L79.3859 7.72585L77.146 14.3381H76.374L73.457 6.17562Z" fill="#151011"/>
<path d="M100.853 6.56159L100.322 5.97947C100.467 5.88455 101.587 4.71397 100.518 3.4991C99.5939 2.48037 99.7395 0.873192 100.758 0L101.29 0.531508C101.144 0.67704 100.024 1.797 101.094 3.01188C102.017 4.08755 101.922 5.63778 100.853 6.56159Z" fill="#070606"/>
<path d="M104.158 7.14363L103.626 6.5615C103.772 6.41597 104.892 5.296 103.822 4.08113C102.899 3.0624 103.044 1.45522 104.063 0.582031L104.594 1.11354C104.449 1.25907 103.329 2.37904 104.398 3.59391C105.328 4.66958 105.183 6.21982 104.158 7.14363Z" fill="#070606"/>
<path d="M108.821 11.9084V11.3769C108.093 11.5224 107.365 11.6173 106.587 11.6173C105.277 11.6173 103.961 11.4211 102.702 11.0858C100.221 10.453 98.7662 10.1114 97.7981 10.1114C97.3108 10.0607 96.7793 10.2063 96.387 10.548C96.1909 10.6935 96.096 10.9339 96.096 11.225V12.0033C96.096 12.636 95.8998 13.2688 95.5645 13.8003C95.4189 14.0913 95.4189 14.3824 95.6151 14.6735C95.9568 15.205 96.1466 15.8377 96.1972 16.4705V20.5517C96.1972 20.8934 96.2478 21.2794 96.3427 21.621C96.4883 21.9121 96.7793 22.1083 97.121 22.1083H107.859C108.2 22.1083 108.492 21.9627 108.637 21.6717C108.783 21.2857 108.877 20.8934 108.877 20.4568V16.3756C108.877 15.7428 109.074 15.1101 109.409 14.5786C109.555 14.3381 109.605 13.9964 109.46 13.7054C109.017 13.1675 108.821 12.5348 108.821 11.9084Z" fill="#7FC21F"/>
<path d="M96.2869 5.00563C95.2176 5.68267 94.5848 6.89755 94.6861 8.16305V12.0481C94.6861 12.877 93.7623 13.8451 93.4206 14.1868C93.7623 14.4779 94.7304 15.4523 94.7304 16.2749V20.1599C94.7304 21.9063 95.3125 22.7352 96.3312 23.368L96.0402 24.0007C94.1925 22.9314 93.8066 22.1088 93.8066 18.9008V16.4204C93.8066 15.5472 92.7372 14.6234 92.25 14.1868C92.7372 13.8008 93.7559 12.7758 93.7559 11.9026V9.3273C93.7559 6.2648 94.1925 5.34099 95.9895 4.32227L96.2869 5.00563Z" fill="#070606"/>
<path d="M108.967 4.32812C110.764 5.39747 111.2 6.27066 111.2 9.33316V11.8578C111.2 12.731 112.219 13.7497 112.706 14.142C112.219 14.5786 111.15 15.5025 111.15 16.3756V18.856C111.15 22.0641 110.764 22.9372 108.916 23.956L108.625 23.3232C109.599 22.6905 110.226 21.8679 110.226 20.1152V16.2301C110.226 15.3569 111.2 14.4331 111.536 14.0914C111.194 13.7497 110.27 12.8259 110.27 11.9527V8.16258C110.27 6.27066 109.441 5.53667 108.669 5.00517L108.967 4.32812Z" fill="#070606"/>
<path d="M114.894 8.35938L120.722 14.1933L114.894 20.0209L114.262 19.3882L119.507 14.1933L114.262 8.99212L114.894 8.35938Z" fill="#070606"/>
</svg>
