<svg width="83" height="16" viewBox="0 0 83 16" fill="none" xmlns="http://www.w3.org/2000/svg">
<mask id="mask0_29379_80638" style="mask-type:luminance" maskUnits="userSpaceOnUse" x="0" y="0" width="16" height="16">
<path d="M16 0H0V16H16V0Z" fill="white"/>
</mask>
<g mask="url(#mask0_29379_80638)">
<path d="M10.8335 2.41699V13.417C10.8335 14.6478 11.6826 15.3337 12.5835 15.3337C13.4168 15.3337 14.3335 14.7503 14.3335 13.417V2.50033C14.3335 1.37199 13.5001 0.666992 12.5835 0.666992C11.6668 0.666992 10.8335 1.44449 10.8335 2.41699Z" fill="#F9AB00"/>
<path d="M6.25 8V13.4167C6.25 14.6475 7.09917 15.3333 8 15.3333C8.83333 15.3333 9.75 14.75 9.75 13.4167V8.08333C9.75 6.955 8.91667 6.25 8 6.25C7.08333 6.25 6.25 7.0275 6.25 8Z" fill="#E37400"/>
<path d="M3.41675 15.334C4.38324 15.334 5.16675 14.5505 5.16675 13.584C5.16675 12.6175 4.38324 11.834 3.41675 11.834C2.45025 11.834 1.66675 12.6175 1.66675 13.584C1.66675 14.5505 2.45025 15.334 3.41675 15.334Z" fill="#E37400"/>
</g>
<mask id="mask1_29379_80638" style="mask-type:luminance" maskUnits="userSpaceOnUse" x="18" y="5" width="25" height="8">
<path d="M42.6667 5H18V13H42.6667V5Z" fill="white"/>
</mask>
<g mask="url(#mask1_29379_80638)">
<path d="M21.2634 11.2747C19.6184 11.2747 18.2351 9.93469 18.2351 8.28969C18.2351 6.64469 19.6184 5.30469 21.2634 5.30469C22.1734 5.30469 22.8218 5.66135 23.3084 6.12802L22.7334 6.70302C22.3834 6.37469 21.9118 6.12135 21.2634 6.12135C20.0618 6.12135 19.1234 7.08969 19.1234 8.29135C19.1234 9.49302 20.0634 10.4614 21.2634 10.4614C22.0418 10.4614 22.4868 10.148 22.7701 9.86469C23.0034 9.63135 23.1568 9.29635 23.2134 8.83802H21.2634V8.02302H24.0084C24.0384 8.16802 24.0518 8.34302 24.0518 8.53302C24.0518 9.14469 23.8834 9.90135 23.3451 10.4397C22.8218 10.983 22.1518 11.2747 21.2634 11.2747ZM28.2968 9.35302C28.2968 10.4597 27.4468 11.2747 26.4034 11.2747C25.3601 11.2747 24.5101 10.4597 24.5101 9.35302C24.5101 8.23969 25.3601 7.43135 26.4034 7.43135C27.4468 7.43135 28.2968 8.23802 28.2968 9.35302ZM27.4668 9.35302C27.4668 8.66135 26.9734 8.18802 26.4018 8.18802C25.8301 8.18802 25.3368 8.66135 25.3368 9.35302C25.3368 10.038 25.8301 10.518 26.4018 10.518C26.9734 10.518 27.4668 10.0364 27.4668 9.35302ZM32.5418 9.35302C32.5418 10.4597 31.6918 11.2747 30.6484 11.2747C29.6051 11.2747 28.7551 10.4597 28.7551 9.35302C28.7551 8.23969 29.6051 7.43135 30.6484 7.43135C31.6918 7.43135 32.5418 8.23802 32.5418 9.35302ZM31.7134 9.35302C31.7134 8.66135 31.2201 8.18802 30.6484 8.18802C30.0768 8.18802 29.5834 8.66135 29.5834 9.35302C29.5834 10.038 30.0768 10.518 30.6484 10.518C31.2201 10.518 31.7134 10.0364 31.7134 9.35302ZM36.6817 7.54802V10.998C36.6817 12.418 35.8451 12.9997 34.8551 12.9997C33.9234 12.9997 33.3634 12.373 33.1518 11.8647L33.8868 11.5597C34.0184 11.873 34.3384 12.243 34.8551 12.243C35.4884 12.243 35.8818 11.8497 35.8818 11.1147V10.838H35.8518C35.6618 11.0714 35.2984 11.2747 34.8401 11.2747C33.8801 11.2747 32.9984 10.438 32.9984 9.35969C32.9984 8.27469 33.8784 7.43135 34.8401 7.43135C35.2984 7.43135 35.6618 7.63469 35.8518 7.86135H35.8818V7.54802H36.6817ZM35.9401 9.35969C35.9401 8.68302 35.4884 8.18802 34.9134 8.18802C34.3318 8.18802 33.8434 8.68302 33.8434 9.35969C33.8434 10.0297 34.3318 10.5164 34.9134 10.5164C35.4884 10.518 35.9401 10.0297 35.9401 9.35969ZM38.1618 5.50969V11.158H37.3168V5.50969H38.1618ZM41.4817 9.98635L42.1368 10.423C41.9251 10.7364 41.4168 11.2747 40.5351 11.2747C39.4434 11.2747 38.6551 10.4297 38.6551 9.35302C38.6551 8.20969 39.4501 7.43135 40.4401 7.43135C41.4367 7.43135 41.9251 8.22469 42.0851 8.65469L42.1717 8.87302L39.6018 9.93635C39.7984 10.3214 40.1034 10.518 40.5334 10.518C40.9651 10.518 41.2634 10.3064 41.4817 9.98635ZM39.4651 9.29469L41.1834 8.58135C41.0884 8.34135 40.8051 8.17302 40.4701 8.17302C40.0401 8.17302 39.4434 8.55135 39.4651 9.29469Z" fill="black" fill-opacity="0.65098"/>
</g>
<path d="M46.6559 6.17601L45.7199 8.76001H47.6239L46.6879 6.17601H46.6559ZM44.9119 11H44.0959L46.2559 5.27201H47.0879L49.2479 11H48.4319L47.8799 9.44801H45.4719L44.9119 11ZM49.7917 7.08001H50.4957V7.62401H50.5277C50.6397 7.43201 50.8103 7.27201 51.0397 7.14401C51.2743 7.01601 51.517 6.95201 51.7677 6.95201C52.2477 6.95201 52.6157 7.09068 52.8717 7.36801C53.133 7.64001 53.2637 8.02934 53.2637 8.53601V11H52.5277V8.58401C52.5117 7.94401 52.189 7.62401 51.5597 7.62401C51.2663 7.62401 51.021 7.74401 50.8237 7.98401C50.6263 8.21868 50.5277 8.50134 50.5277 8.83201V11H49.7917V7.08001ZM54.6245 9.80001C54.6245 9.99201 54.7045 10.152 54.8645 10.28C55.0299 10.408 55.2219 10.472 55.4405 10.472C55.7499 10.472 56.0245 10.3573 56.2645 10.128C56.5099 9.89868 56.6325 9.62934 56.6325 9.32001C56.4032 9.13868 56.0832 9.04801 55.6725 9.04801C55.3739 9.04801 55.1232 9.12001 54.9205 9.26401C54.7232 9.40801 54.6245 9.58668 54.6245 9.80001ZM55.5765 6.95201C56.1205 6.95201 56.5499 7.09868 56.8645 7.39201C57.1792 7.68001 57.3365 8.07734 57.3365 8.58401V11H56.6325V10.456H56.6005C56.2965 10.904 55.8912 11.128 55.3845 11.128C54.9525 11.128 54.5899 11 54.2965 10.744C54.0085 10.488 53.8645 10.168 53.8645 9.78401C53.8645 9.37868 54.0165 9.05601 54.3205 8.81601C54.6299 8.57601 55.0405 8.45601 55.5525 8.45601C55.9899 8.45601 56.3499 8.53601 56.6325 8.69601V8.52801C56.6325 8.27201 56.5312 8.05601 56.3285 7.88001C56.1259 7.69868 55.8885 7.60801 55.6165 7.60801C55.2059 7.60801 54.8805 7.78134 54.6405 8.12801L53.9925 7.72001C54.3499 7.20801 54.8779 6.95201 55.5765 6.95201ZM58.9027 5.27201V11H58.1667V5.27201H58.9027ZM63.3035 7.08001L60.8475 12.728H60.0875L60.9995 10.752L59.3835 7.08001H60.1835L61.3515 9.89601H61.3675L62.5035 7.08001H63.3035ZM65.3358 11.064C65.0158 11.064 64.7492 10.9653 64.5358 10.768C64.3278 10.5707 64.2212 10.296 64.2158 9.94401V7.75201H63.5278V7.08001H64.2158V5.88001H64.9518V7.08001H65.9118V7.75201H64.9518V9.70401C64.9518 9.96534 65.0025 10.144 65.1038 10.24C65.2052 10.3307 65.3198 10.376 65.4478 10.376C65.5065 10.376 65.5625 10.3707 65.6158 10.36C65.6745 10.344 65.7278 10.3253 65.7758 10.304L66.0078 10.96C65.8158 11.0293 65.5918 11.064 65.3358 11.064ZM67.6031 5.72801C67.6031 5.87201 67.5525 5.99468 67.451 6.09601C67.3498 6.19734 67.227 6.24801 67.083 6.24801C66.939 6.24801 66.8165 6.19734 66.715 6.09601C66.6138 5.99468 66.563 5.87201 66.563 5.72801C66.563 5.58401 66.6138 5.46134 66.715 5.36001C66.8165 5.25868 66.939 5.20801 67.083 5.20801C67.227 5.20801 67.3498 5.25868 67.451 5.36001C67.5525 5.46134 67.6031 5.58401 67.6031 5.72801ZM67.451 7.08001V11H66.715V7.08001H67.451ZM70.1618 11.128C69.5805 11.128 69.0978 10.9307 68.7138 10.536C68.3351 10.1307 68.1458 9.63201 68.1458 9.04001C68.1458 8.43734 68.3351 7.93868 68.7138 7.54401C69.0978 7.14934 69.5805 6.95201 70.1618 6.95201C70.5618 6.95201 70.9111 7.05334 71.2098 7.25601C71.5084 7.45334 71.7324 7.72801 71.8818 8.08001L71.2098 8.36001C71.0018 7.86934 70.6364 7.62401 70.1138 7.62401C69.7778 7.62401 69.4871 7.76001 69.2418 8.03201C69.0018 8.30401 68.8818 8.64001 68.8818 9.04001C68.8818 9.44001 69.0018 9.77601 69.2418 10.048C69.4871 10.32 69.7778 10.456 70.1138 10.456C70.6524 10.456 71.0311 10.2107 71.2498 9.72001L71.9058 10C71.7618 10.352 71.5351 10.6293 71.2258 10.832C70.9218 11.0293 70.5672 11.128 70.1618 11.128ZM75.5495 9.91201C75.5495 10.2533 75.4001 10.5413 75.1015 10.776C74.8028 11.0107 74.4268 11.128 73.9735 11.128C73.5788 11.128 73.2321 11.0267 72.9335 10.824C72.6348 10.616 72.4215 10.344 72.2935 10.008L72.9495 9.72801C73.0455 9.96268 73.1841 10.1467 73.3655 10.28C73.5521 10.408 73.7548 10.472 73.9735 10.472C74.2081 10.472 74.4028 10.4213 74.5575 10.32C74.7175 10.2187 74.7975 10.0987 74.7975 9.96001C74.7975 9.70934 74.6056 9.52534 74.2215 9.40801L73.5495 9.24001C72.7868 9.04801 72.4055 8.68001 72.4055 8.13601C72.4055 7.77868 72.5495 7.49334 72.8375 7.28001C73.1308 7.06134 73.5042 6.95201 73.9576 6.95201C74.3041 6.95201 74.6161 7.03468 74.8935 7.20001C75.1761 7.36534 75.3736 7.58668 75.4855 7.86401L74.8295 8.13601C74.7548 7.97068 74.6321 7.84268 74.4615 7.75201C74.2961 7.65601 74.1096 7.60801 73.9016 7.60801C73.7096 7.60801 73.5361 7.65601 73.3815 7.75201C73.2321 7.84801 73.1575 7.96534 73.1575 8.10401C73.1575 8.32801 73.3681 8.48801 73.7895 8.58401L74.3815 8.73601C75.1601 8.92801 75.5495 9.32001 75.5495 9.91201ZM81.1559 9.84801V11H80.4199V9.84801H77.8199V9.28801L80.3559 5.52801H81.1559V9.16001H81.8599V9.84801H81.1559ZM78.6519 9.16001H80.4199V6.60801H80.3879L78.6519 9.16001Z" fill="black" fill-opacity="0.65098"/>
</svg>
