<svg width="66" height="22" viewBox="0 0 66 22" fill="none" xmlns="http://www.w3.org/2000/svg">
<g clip-path="url(#clip0_29428_81910)">
<path d="M19.2689 1.64496C19.9719 0.295012 17.694 0.674684 17.694 0.674684C16.8783 0.674684 16.5127 1.65901 16.344 1.94026L13.8832 6.79161C13.4191 7.59314 11.8863 11.0242 11.3801 11.7836C11.3379 11.0102 11.3942 9.46338 11.4082 9.09776C11.5067 7.63533 11.6051 6.52444 11.7598 5.18856C11.8723 4.14798 12.0973 2.98084 11.8863 1.94026C11.7457 1.29341 11.5348 1.25122 10.6067 1.15279C9.63645 1.05436 8.97554 2.46054 8.65211 3.12145C7.4709 5.56823 6.14909 7.95875 5.09445 10.4618C4.78509 11.193 4.40541 11.9242 4.08198 12.6414C3.70232 13.5132 3.35077 14.371 2.94297 15.2288C2.50706 16.1287 1.14305 19.0818 0.763376 20.0098C0.341517 21.0223 0.257146 21.8378 1.94457 21.7956C2.21175 21.7956 2.80235 21.852 3.53358 21.0645C4.11011 20.4458 4.2226 19.8692 4.5601 19.0114C5.76942 15.974 6.62719 13.9632 7.94902 10.9539C8.07557 10.6586 8.37087 9.80087 8.66618 9.13996C8.65211 10.0821 8.49742 11.2071 8.42712 11.9523C8.20213 14.6804 8.04744 17.3099 7.8084 20.0098C7.78026 20.3754 7.68184 20.8114 7.85058 21.1488C8.01932 21.4864 8.44119 21.5707 8.77867 21.6129C10.1286 21.7816 10.2692 21.1066 10.6911 20.1786C11.0708 19.3489 11.2958 18.674 11.6332 17.8302C12.6738 15.2288 13.7707 12.6554 14.98 10.1243C15.2894 9.47744 15.5987 8.84465 15.9362 8.21186C16.5549 7.04474 17.0612 5.9479 17.736 4.6542C18.2423 3.72612 18.7344 2.67148 19.2689 1.64496ZM65.6028 8.97121C65.4481 7.41034 63.3108 8.19781 62.0311 8.43686C61.553 8.52123 60.0766 8.80247 58.375 9.1259C58.3047 7.36815 58.3328 7.7197 58.3188 6.65099C58.2765 5.10419 58.1923 3.89486 58.1078 2.53086C58.0516 1.67308 57.9251 0.477817 56.3782 0.702808C54.5783 0.955922 54.283 1.85589 53.8049 2.93866C52.5534 5.76509 52.5956 5.77916 51.1754 8.92902C51.0629 9.16808 50.5426 10.4337 50.4582 10.6868C50.4019 10.7008 50.2894 10.729 50.1488 10.7711C49.5723 10.8977 48.8692 11.0524 48.0958 11.2211L48.1098 11.1508C48.2927 9.7165 48.5176 8.28218 48.7145 6.84786C48.8973 5.5401 49.0942 3.40269 49.2488 2.09494C49.4176 0.688746 47.7864 0.716869 47.7864 0.716869C46.788 0.660621 46.4084 0.955922 45.7756 1.77152C44.6928 3.1777 43.385 4.69639 42.2319 6.24321C40.1367 9.04153 38.604 11.1508 36.7057 13.9632C36.1572 14.7789 35.3135 16.0162 34.5823 16.9866C34.0902 16.0162 33.6683 14.9476 33.2605 13.9632C32.6699 12.557 32.2339 11.6852 31.9527 10.7571C31.6996 9.94149 32.009 9.82899 32.6135 9.36494C34.3573 8.04312 36.3259 7.12911 38.1118 5.86353C39.3774 4.96356 40.8961 3.96518 42.1335 3.03708C42.1335 3.03708 42.8507 2.61523 43.2444 2.08088C43.7366 1.4059 42.3444 0.702808 42.3444 0.702808C41.557 0.57625 41.1211 0.759055 40.5726 1.01217C40.0102 1.26528 39.279 1.84182 38.8009 2.2215C37.7461 3.03708 36.4103 4.00736 35.3697 4.82294C34.0902 5.82134 33.2183 6.44007 31.8121 7.26971L35.3838 1.92619C36.551 0.421569 33.4574 -0.000288546 32.2761 1.58871C31.1793 3.00896 30.434 4.26047 29.5762 5.55417C27.5091 8.63373 25.8077 11.868 24.1061 15.2569C23.4593 16.5505 22.8266 17.9005 22.2359 19.2365C21.9547 19.8833 21.125 21.3738 22.2641 21.5285C24.6967 21.8378 25.0905 20.6848 25.6389 19.2927C26.5388 17.0006 26.8341 16.5787 27.4107 15.1585C27.9732 13.7803 28.381 12.9929 29.0138 11.8117C29.0278 11.7977 29.2106 11.5024 29.2106 11.5024C29.3232 11.7414 30.0684 14.2163 30.1669 14.4975C30.673 15.8335 31.5589 18.9551 32.0652 20.3754C32.4308 21.5566 32.5293 21.8941 34.1182 21.852C34.9057 21.8378 35.2432 21.5285 35.7635 20.5442C36.2838 19.5599 38.5336 15.3694 38.5336 15.3694C39.2086 15.2569 40.1789 15.0881 40.8117 14.9756C40.9242 14.9616 41.1773 14.9054 41.5289 14.8351C41.7679 14.8069 41.9648 14.7647 42.1195 14.7225C42.1335 14.7225 42.1335 14.7225 42.1475 14.7085C42.7663 14.582 43.5537 14.4273 44.4116 14.2586C44.2569 15.0319 43.7788 16.7334 43.6804 17.1693C43.6804 17.1693 42.6398 21.2191 43.9897 21.43C44.8335 21.5566 45.2693 21.416 45.2693 21.416C46.8442 21.2332 46.8724 19.1098 46.8724 19.1098L47.7302 13.6116C48.3489 13.4851 48.9677 13.3585 49.5723 13.246L47.7161 19.5177C47.449 20.4036 47.2521 21.5426 48.841 21.5426C50.1348 21.6129 50.2192 20.7972 50.2192 20.7972C50.2472 20.6707 51.2738 17.3662 51.5269 16.1849C51.6957 15.4257 52.3002 13.471 52.5394 12.6836C53.2143 12.557 53.7205 12.4586 53.9596 12.4164C54.2408 12.3742 54.7893 12.2758 55.5065 12.1633C55.4923 12.8945 55.5065 13.907 55.5205 14.0476C55.6752 16.2694 55.5065 18.5755 55.9704 20.7551C56.0408 21.1066 56.1813 21.5566 56.6314 21.5566C57.1657 21.5566 57.3344 21.5004 57.8969 21.4582C59.5281 21.3175 59.2329 19.6723 59.1344 18.6317C59.0219 17.4787 58.9093 16.5085 58.7548 15.3554C58.6281 14.4132 58.5438 13.1757 58.5297 11.6852V11.657C61.2014 11.2071 64.0841 10.7149 64.506 10.6446C65.181 10.4618 65.7435 10.518 65.6028 8.97121ZM44.721 11.9242C44.721 11.9383 44.7068 11.9383 44.7068 11.9523C42.8367 12.3601 41.0789 12.7539 40.0945 12.9789C41.0789 11.3336 45.41 5.34324 46.0708 4.64014C45.7052 6.49632 45.1146 9.94149 44.721 11.9242ZM55.5205 9.56181V9.66025C54.6206 9.82899 53.7769 9.99773 53.1019 10.1243C53.9596 7.9025 54.8595 5.17449 55.3939 3.79642C55.3518 4.82294 55.5627 8.54936 55.5205 9.56181ZM29.295 2.93866C29.5762 2.41836 30.2091 1.39184 29.4216 0.998107C28.9576 0.773117 28.3388 0.632497 27.8607 0.871551C27.4669 1.08248 27.1717 1.49027 26.9748 1.86995L23.9655 6.60881C23.4734 7.28378 23.0093 8.12749 22.0109 8.24C21.35 8.3103 20.8719 8.02906 20.886 7.43847C20.9001 6.8338 21.2516 6.03227 21.5188 5.51198C22.3063 4.02141 22.4047 3.51519 23.164 2.03869C23.8952 0.618435 21.5046 0.295012 20.9141 1.32153C20.4922 2.05274 19.6766 3.43082 19.4938 3.89486C19.1564 4.73857 16.6252 8.76028 17.722 10.3493C19.1282 12.1492 22.8686 9.3087 20.9563 12.5851C19.4094 15.2147 18.4392 16.7194 17.0892 19.152C16.7939 19.6723 16.4283 20.1926 16.33 20.8114C16.1893 21.6831 17.3846 21.6691 17.9049 21.6411C18.8189 21.5707 19.2547 21.1488 19.6203 20.3191C19.8172 19.8833 20.0844 19.3489 20.2813 18.9129C22.0531 15.046 23.9374 11.6852 26.2716 7.94469C27.3826 6.17289 28.3669 4.6542 29.295 2.93866Z" fill="#FC2779"/>
</g>
<defs>
<clipPath id="clip0_29428_81910">
<rect width="66" height="22" fill="white"/>
</clipPath>
</defs>
</svg>
