<svg width="75" height="30" viewBox="0 0 75 30" fill="none" xmlns="http://www.w3.org/2000/svg">
<path d="M36.5735 19.6568C37.7464 19.6568 38.4855 19.0478 39.0277 18.3105V19.505H40.656V9.59961H39.0277V13.4436C38.5072 12.7695 37.7681 12.1839 36.5735 12.1839C34.8801 12.1839 33.25 13.5303 33.25 15.8978V15.9412C33.25 18.3105 34.9018 19.6568 36.5735 19.6568ZM36.9657 18.2237C35.8578 18.2237 34.9018 17.3111 34.9018 15.943V15.8996C34.9018 14.4882 35.8578 13.6189 36.9657 13.6189C38.0735 13.6189 39.0512 14.5098 39.0512 15.8996V15.943C39.0494 17.3111 38.0735 18.2237 36.9657 18.2237ZM42.6783 11.2297H44.4386V9.66648H42.6783V11.2297ZM42.7434 19.505H44.3934V12.3376H42.7434V19.505ZM49.6723 21.699C50.9536 21.699 51.953 21.3954 52.6054 20.743C53.2145 20.1339 53.5181 19.2448 53.5181 18.0285V12.3376H51.8898V13.402C51.3259 12.7496 50.5651 12.1858 49.3705 12.1858C47.6988 12.1858 46.1121 13.4237 46.1121 15.5526V15.5743C46.1121 17.6815 47.6753 18.9412 49.3705 18.9412C50.5434 18.9412 51.3042 18.399 51.8898 17.6165V18.1803C51.8898 19.6135 51.0855 20.3743 49.6307 20.3743C48.653 20.3743 47.8271 20.0924 47.0681 19.6135L46.459 20.8514C47.3916 21.3954 48.4777 21.699 49.6723 21.699ZM49.8024 17.5496C48.6729 17.5496 47.7602 16.7454 47.7602 15.5725V15.5291C47.7602 14.3562 48.6512 13.5737 49.8024 13.5737C50.9319 13.5737 51.9096 14.3779 51.9096 15.5508V15.5725C51.9096 16.7255 50.9319 17.5496 49.8024 17.5496ZM55.5367 11.2297H57.297V9.66648H55.5367V11.2297ZM55.6018 19.505H57.2518V12.3376H55.6018V19.505ZM61.7265 19.6352C62.3355 19.6352 62.791 19.4833 63.203 19.2665V17.9201C62.8777 18.0719 62.5506 18.1586 62.1819 18.1586C61.6398 18.1586 61.3127 17.8984 61.3127 17.2677V13.749H63.2247V12.3376H61.3127V10.3605H59.6626V12.3376H58.75V13.749H59.6626V17.5279C59.6626 19.093 60.5102 19.6352 61.7265 19.6352ZM70.8494 19.505V15.2472C70.8494 13.3352 69.8066 12.2273 67.6994 12.2273C66.5265 12.2273 65.744 12.4659 64.9633 12.8147L65.4187 14.1394C66.0711 13.8574 66.6566 13.6839 67.4608 13.6839C68.5904 13.6839 69.2211 14.2261 69.2211 15.2255V15.3556C68.6789 15.1821 68.1133 15.0737 67.244 15.0737C65.5723 15.0737 64.3325 15.8345 64.3325 17.4195V17.4412C64.3325 18.8743 65.5271 19.6568 66.8952 19.6568C67.9813 19.6568 68.7205 19.2014 69.2193 18.6141V19.505H70.8494ZM69.2645 16.9207C69.2645 17.8117 68.4386 18.4189 67.3524 18.4189C66.5699 18.4189 65.9627 18.0285 65.9627 17.3544V17.3327C65.9627 16.637 66.5717 16.2249 67.6127 16.2249C68.2434 16.2249 68.8289 16.3333 69.2627 16.5068V16.9207H69.2645ZM72.8265 19.505H74.4765V9.59961H72.8265V19.505Z" fill="#2B2E34"/>
<path fill-rule="evenodd" clip-rule="evenodd" d="M0.191406 0H29.9059V29.7145H0.191406V0ZM5.86068 19.6139H7.51068V12.8584L12.7462 19.6139H14.136V10.1006H12.5077V16.6825L7.40406 10.1006H5.86249V19.6139H5.86068ZM16.8938 19.6139H18.5655V16.5506H20.4559C22.5414 16.5506 24.2565 15.4428 24.2565 13.3139V13.2922C24.2565 11.3801 22.845 10.0988 20.6294 10.0988H16.8938V19.6139ZM18.5673 15.0524V11.6422H20.501C21.7607 11.6422 22.5432 12.206 22.5432 13.3355V13.3572C22.5432 14.3566 21.7607 15.0506 20.501 15.0506H18.5673V15.0524ZM1.84141 1.65181H28.2757V28.0861H1.84141V1.65181Z" fill="#FF5E29"/>
</svg>
