<svg width="60" height="18" viewBox="0 0 60 18" fill="none" xmlns="http://www.w3.org/2000/svg">
<g clip-path="url(#clip0_29379_80653)">
<mask id="mask0_29379_80653" style="mask-type:luminance" maskUnits="userSpaceOnUse" x="0" y="0" width="60" height="18">
<path d="M60 0H0V17.5781H60V0Z" fill="white"/>
</mask>
<g mask="url(#mask0_29379_80653)">
<path d="M38.32 4.04297C35.6833 4.04297 33.5739 6.15234 33.5739 8.78906C33.5739 11.4258 35.6833 13.5352 38.32 13.5352C40.9567 13.5352 43.0661 11.4258 43.0661 8.78906C43.0661 6.15234 40.9567 4.04297 38.32 4.04297ZM38.32 11.6016C36.7966 11.6016 35.5075 10.3711 35.5075 8.78906C35.5075 7.20703 36.738 5.97656 38.32 5.97656C39.8435 5.97656 41.1325 7.20703 41.1325 8.73047C41.1325 10.3125 39.9021 11.6016 38.32 11.6016ZM48.8669 6.32812C47.5192 6.32812 46.406 7.44141 46.406 8.78906V13.3008H44.3552V4.33594H46.406V5.74219C46.9919 4.86328 47.988 4.33594 49.0427 4.33594H49.6872V6.32812H48.8669ZM28.2419 4.33594L29.7653 10.5469L31.4646 4.33594H33.4567L30.8786 13.3008H28.8278L27.2458 7.03125L25.6638 13.3008H23.613L21.0349 4.33594H23.0271L24.7263 10.5469L26.3083 4.33594H28.2419ZM55.6638 8.4375C57.1872 7.61719 58.0661 6.03516 58.0661 4.27734H56.0739C56.0739 5.80078 54.8435 6.97266 53.3786 6.97266H53.0857V0H51.0349V13.3008H53.0857V9.08203H53.32C53.5544 9.08203 53.7888 9.19922 53.906 9.375L56.7771 13.3008H59.238L55.6638 8.4375Z" fill="#494949"/>
<path d="M16.1719 4.04272C13.9453 4.04272 12.2461 5.50757 11.5429 7.85132C10.4883 6.26929 9.72656 4.51147 9.19922 2.69507H6.79687V8.90601C6.79687 10.1365 5.80078 11.1326 4.57031 11.1326C3.33984 11.1326 2.34375 10.1365 2.34375 8.90601V2.75366H0V8.9646C0 11.4841 2.05078 13.5935 4.6289 13.5935C7.20703 13.5935 9.25781 11.5427 9.25781 8.9646V7.90991C9.72656 8.90601 10.3125 9.84351 10.957 10.7224L9.49219 17.5779H11.9531L13.0078 12.5974C13.9453 13.2419 15.0586 13.5935 16.2304 13.5935C18.8672 13.5935 20.9765 11.4841 20.9765 8.84741C20.9179 6.21069 18.8086 4.04272 16.1719 4.04272ZM16.1719 11.1912C15.1758 11.1326 14.2383 10.781 13.4765 10.1365L13.6523 9.19897V9.14038C13.8281 8.14429 14.414 6.44507 16.1133 6.44507C17.4023 6.38647 18.457 7.44116 18.5156 8.73022C18.5742 10.0193 17.5195 11.074 16.2304 11.1326L16.1719 11.1912Z" fill="#6FDA44"/>
</g>
</g>
<defs>
<clipPath id="clip0_29379_80653">
<rect width="60" height="18" fill="white"/>
</clipPath>
</defs>
</svg>
